<?xml version="1.0" encoding="UTF-8"?>
<svg width="43px" height="32px" viewBox="0 0 43 32" version="1.1" xmlns="http://www.w3.org/2000/svg" xmlns:xlink="http://www.w3.org/1999/xlink">
    <title>Path</title>
    <g id="RZ" stroke="none" stroke-width="1" fill="none" fill-rule="evenodd">
        <g id="START-V3" transform="translate(-816, -6030)" fill="#FFFFFF" fill-rule="nonzero">
            <g id="Group-11" transform="translate(762, 6008)">
                <g id="noun-share-6532691-(1)" transform="translate(54.2836, 22)">
                    <path d="M3.02521925,31.094846 C14.264179,20.2329335 23.3698217,23.3251663 23.3698217,23.3251663 L23.3698217,30.1728174 C23.3566491,30.8903477 23.7723068,31.5467049 24.426594,31.8415464 C25.0808812,32.1363879 25.8479203,32.0129895 26.3767217,31.5278171 L41.6806971,17.355016 C42.0559255,17.0042704 42.2689121,16.513633 42.2689121,16 C42.2689121,15.486367 42.0559255,14.9957296 41.6806971,14.644984 L26.3767217,0.47218285 C25.8479203,-0.0129895216 25.0808812,-0.136387885 24.426594,0.158453632 C23.7723068,0.453295149 23.3566491,1.10965233 23.3698217,1.82718262 L23.3698217,8.67486626 L19.774713,8.67486626 C8.75213237,8.77805377 -0.100349281,17.7962266 0.000859240605,28.8188255 L0.000859240605,29.7668165 C-0.0118763208,30.4885317 0.410082476,31.1472881 1.07099848,31.4375035 C1.73191448,31.727719 2.50246902,31.5926082 3.02521925,31.094846 Z" id="Path"></path>
                </g>
            </g>
        </g>
    </g>
</svg>