<?xml version="1.0" encoding="UTF-8"?>
<svg width="21px" height="15px" viewBox="0 0 21 15" version="1.1" xmlns="http://www.w3.org/2000/svg" xmlns:xlink="http://www.w3.org/1999/xlink">
    <title>Combined Shape</title>
    <g id="Symbols" stroke="none" stroke-width="1" fill="none" fill-rule="evenodd">
        <g id="Radio" transform="translate(-240, -155)" fill="#F18E1C">
            <g id="Group-14" transform="translate(240, 155)">
                <g id="Group-33" transform="translate(0, -0)">
                    <path d="M20.2485924,0.417168064 C20.3704925,0.587089492 20.4360541,0.79095172 20.4360541,1.00007594 L20.4360541,13.1038707 C20.4360541,13.6561555 19.9883389,14.1038707 19.4360541,14.1038707 C19.2269299,14.1038707 19.0230677,14.0383092 18.8531463,13.916409 L10.436,7.878 L10.4360541,13.1038707 C10.4360541,13.6561555 9.98833889,14.1038707 9.43605414,14.1038707 C9.22692992,14.1038707 9.02306769,14.0383092 8.85314626,13.916409 L0.417168064,7.86451159 C-0.03158442,7.54258046 -0.134393441,6.91781795 0.187537689,6.46906547 C0.251058243,6.38052167 0.328624263,6.30295565 0.417168064,6.23943509 L8.85314626,0.187537689 C9.30189875,-0.134393441 9.92666126,-0.03158442 10.2485924,0.417168064 C10.3704925,0.587089492 10.4360541,0.79095172 10.4360541,1.00007594 L10.436,6.225 L18.8531463,0.187537689 C19.3018987,-0.134393441 19.9266613,-0.03158442 20.2485924,0.417168064 Z" id="Combined-Shape"></path>
                </g>
            </g>
        </g>
    </g>
</svg>