<?xml version="1.0" encoding="UTF-8"?>
<svg width="21px" height="15px" viewBox="0 0 21 15" version="1.1" xmlns="http://www.w3.org/2000/svg" xmlns:xlink="http://www.w3.org/1999/xlink">
    <title>Combined Shape Copy</title>
    <g id="Symbols" stroke="none" stroke-width="1" fill="none" fill-rule="evenodd">
        <g id="Radio" transform="translate(-281, -155)" fill="#F18E1C">
            <g id="Group-14" transform="translate(240, 155)">
                <g id="Group-33" transform="translate(0, -0)">
                    <path d="M61.2485924,0.417168064 C61.3704925,0.587089492 61.4360541,0.79095172 61.4360541,1.00007594 L61.4360541,13.1038707 C61.4360541,13.6561555 60.9883389,14.1038707 60.4360541,14.1038707 C60.2269299,14.1038707 60.0230677,14.0383092 59.8531463,13.916409 L51.436,7.878 L51.4360541,13.1038707 C51.4360541,13.6561555 50.9883389,14.1038707 50.4360541,14.1038707 C50.2269299,14.1038707 50.0230677,14.0383092 49.8531463,13.916409 L41.4171681,7.86451159 C40.9684156,7.54258046 40.8656066,6.91781795 41.1875377,6.46906547 C41.2510582,6.38052167 41.3286243,6.30295565 41.4171681,6.23943509 L49.8531463,0.187537689 C50.3018987,-0.134393441 50.9266613,-0.03158442 51.2485924,0.417168064 C51.3704925,0.587089492 51.4360541,0.79095172 51.4360541,1.00007594 L51.436,6.225 L59.8531463,0.187537689 C60.3018987,-0.134393441 60.9266613,-0.03158442 61.2485924,0.417168064 Z" id="Combined-Shape-Copy" transform="translate(51.218, 7.0519) rotate(-180) translate(-51.218, -7.0519)"></path>
                </g>
            </g>
        </g>
    </g>
</svg>